<svg id="Layer_1" enable-background="new 0 0 496 496" height="512" viewBox="0 0 496 496" width="512" xmlns="http://www.w3.org/2000/svg"><path d="m496 496h-496c99.526-83.685 157.115-169.093 208-278.18h80c50.885 109.087 108.474 194.495 208 278.18z" fill="#72e2dd"/><path d="m288 217.82h-11.149c-68.851 128.513 18.619 191.943 49.482 278.18h169.667c-99.526-83.685-157.115-169.093-208-278.18z" fill="#5bbab3"/><path d="m208 217.82c-50.885 109.087-108.474 194.495-208 278.18h93.667c79.555-79.06 121.62-172.178 129.333-278.18z" fill="#b0fde3"/><path d="m168 297.82c29 72 41-44 161.284 0 .142-.345-16.383-26.618-41.284-80h-80c-12.913 27.684-26.261 53.84-40.613 78.833.395.752.613 1.167.613 1.167z" fill="#f8f9fb"/><path d="m143.596 335.517c23.856-36.517 44.637-75.32 64.404-117.697h80c19.767 42.377 40.548 81.179 64.404 117.697 48.081-33.194 79.596-88.671 79.596-151.517 0-101.62-82.38-184-184-184s-184 82.38-184 184c0 62.846 31.515 118.323 79.596 151.517z" fill="#ffd258"/><path d="m370.511 46.729c42.815 80.751 19.677 179.235-51.39 232.959 10.513 19.267 21.523 37.827 33.283 55.829 98.081-67.714 107.125-209.285 18.107-288.788z" fill="#ffb666"/><path d="m189.246 9.583c-72.808 24.517-125.246 93.342-125.246 174.417 0 62.846 31.515 118.323 79.596 151.517 6.455-9.881 12.678-19.936 18.724-30.177-93.167-82.199-79.949-231.423 26.926-295.757z" fill="#fff0cb"/></svg>